<svg xmlns="http://www.w3.org/2000/svg" viewBox="0 0 900 700" role="img" aria-labelledby="title desc">
  <title id="title">Pharma manufacturing equipment illustration</title>
  <desc id="desc">Clean stainless steel pharma equipment and furniture in a modern production room.</desc>
  <defs>
    <linearGradient id="steel" x1="0" x2="1" y1="0" y2="1">
      <stop offset="0" stop-color="#ffffff"/>
      <stop offset="0.48" stop-color="#d8e3e8"/>
      <stop offset="1" stop-color="#93a7b2"/>
    </linearGradient>
    <linearGradient id="blue" x1="0" x2="1">
      <stop offset="0" stop-color="#092f52"/>
      <stop offset="1" stop-color="#11a6b2"/>
    </linearGradient>
    <filter id="shadow" x="-20%" y="-20%" width="140%" height="140%">
      <feDropShadow dx="0" dy="26" stdDeviation="22" flood-color="#052139" flood-opacity=".28"/>
    </filter>
  </defs>
  <rect width="900" height="700" rx="34" fill="#f4f8fa"/>
  <path d="M0 504C140 440 237 506 390 450s285-161 510-70v320H0z" fill="#e1edf1"/>
  <path d="M76 108h748v424H76z" fill="#ffffff" opacity=".74"/>
  <path d="M76 166h748M76 226h748M76 286h748M76 346h748M76 406h748M76 466h748" stroke="#c9d8de" stroke-width="2" opacity=".6"/>
  <g filter="url(#shadow)">
    <g transform="translate(112 258)">
      <rect x="0" y="80" width="245" height="134" rx="12" fill="url(#steel)" stroke="#78909c" stroke-width="4"/>
      <rect x="22" y="42" width="202" height="58" rx="10" fill="#fdfefe" stroke="#78909c" stroke-width="4"/>
      <path d="M28 214h22v70H28zm166 0h22v70h-22z" fill="#6f8793"/>
      <circle cx="39" cy="293" r="18" fill="#092f52"/>
      <circle cx="205" cy="293" r="18" fill="#092f52"/>
      <rect x="58" y="128" width="130" height="18" rx="9" fill="#11a6b2"/>
      <rect x="58" y="162" width="92" height="14" rx="7" fill="#9db1bb"/>
    </g>
    <g transform="translate(422 145)">
      <ellipse cx="154" cy="70" rx="104" ry="43" fill="#fdfefe" stroke="#78909c" stroke-width="5"/>
      <path d="M50 70h208v232c0 25-47 45-104 45S50 327 50 302z" fill="url(#steel)" stroke="#78909c" stroke-width="5"/>
      <ellipse cx="154" cy="302" rx="104" ry="45" fill="#cfdde3" stroke="#78909c" stroke-width="5"/>
      <path d="M94 111h120v160H94z" fill="#ffffff" opacity=".45"/>
      <path d="M259 162h63c33 0 60 27 60 60v72" fill="none" stroke="#092f52" stroke-width="18" stroke-linecap="round"/>
      <rect x="332" y="280" width="94" height="72" rx="10" fill="url(#blue)"/>
      <circle cx="354" cy="367" r="16" fill="#092f52"/>
      <circle cx="407" cy="367" r="16" fill="#092f52"/>
    </g>
    <g transform="translate(265 418)">
      <rect x="0" y="0" width="354" height="42" rx="11" fill="url(#steel)" stroke="#78909c" stroke-width="4"/>
      <path d="M30 42h20v118H30zm274 0h20v118h-20z" fill="#708893"/>
      <rect x="48" y="74" width="232" height="58" rx="8" fill="#ffffff" stroke="#a0b2bb" stroke-width="3"/>
      <path d="M88 102h152" stroke="#11a6b2" stroke-width="10" stroke-linecap="round"/>
    </g>
  </g>
  <g fill="none" stroke="#11a6b2" stroke-width="5" opacity=".7">
    <path d="M125 119h120v68"/>
    <path d="M760 126h-98v72"/>
    <path d="M720 552H596"/>
  </g>
</svg>
