<svg xmlns="http://www.w3.org/2000/svg" viewBox="0 0 680 760" role="img" aria-labelledby="title desc">
  <title id="title">Commercial canteen stainless furniture illustration</title>
  <desc id="desc">Illustration of canteen table, food warmer, hand wash basin, and kitchen equipment.</desc>
  <defs>
    <linearGradient id="bg" x1="0" x2="1" y1="0" y2="1"><stop stop-color="#092f52"/><stop offset="1" stop-color="#405660"/></linearGradient>
    <linearGradient id="steel" x1="0" x2="1" y1="0" y2="1"><stop stop-color="#ffffff"/><stop offset=".55" stop-color="#d8e4e9"/><stop offset="1" stop-color="#8fa4ae"/></linearGradient>
  </defs>
  <rect width="680" height="760" rx="26" fill="url(#bg)"/>
  <rect x="54" y="80" width="572" height="510" rx="22" fill="#ffffff" opacity=".08"/>
  <g transform="translate(78 150)">
    <rect x="56" y="300" width="400" height="60" rx="13" fill="url(#steel)" stroke="#ffffff" stroke-opacity=".65" stroke-width="4"/>
    <path d="M88 360h24v176H88zm308 0h24v176h-24z" fill="#a5b8c0"/>
    <rect x="100" y="98" width="160" height="140" rx="14" fill="url(#steel)" stroke="#ffffff" stroke-opacity=".65" stroke-width="4"/>
    <rect x="124" y="122" width="112" height="36" rx="8" fill="#ffffff" opacity=".72"/>
    <rect x="124" y="174" width="112" height="36" rx="8" fill="#ffffff" opacity=".72"/>
    <rect x="316" y="112" width="120" height="126" rx="14" fill="url(#steel)" stroke="#ffffff" stroke-opacity=".65" stroke-width="4"/>
    <path d="M340 154h72m-72 42h72" stroke="#11a6b2" stroke-width="10" stroke-linecap="round"/>
    <path d="M118 300l44-60h204l44 60z" fill="#cbd9df" stroke="#ffffff" stroke-opacity=".65" stroke-width="4"/>
    <circle cx="176" cy="390" r="17" fill="#061f36"/>
    <circle cx="336" cy="390" r="17" fill="#061f36"/>
    <path d="M502 222v-56c0-38-31-69-69-69h-8" fill="none" stroke="#78d6c6" stroke-width="16" stroke-linecap="round"/>
    <rect x="462" y="222" width="76" height="78" rx="12" fill="#dce7eb" stroke="#ffffff" stroke-opacity=".65" stroke-width="4"/>
  </g>
</svg>
